<svg width="134" height="41" viewBox="0 0 134 41" fill="none" xmlns="http://www.w3.org/2000/svg">
<g opacity="0.6">
<path d="M3.08292 11.0002H4.35565L6.60281 2.88654H6.68235L8.92951 11.0002H10.2022L12.9863 0.818359H11.7335L9.60565 9.11097H9.50622L7.3386 0.818359H5.94656L3.77894 9.11097H3.67951L1.55167 0.818359H0.298828L3.08292 11.0002Z" fill="#6D6E76"/>
<path d="M16.8542 11.1593C18.4054 11.1593 19.5389 10.3837 19.8968 9.23029L18.7633 8.91211C18.465 9.70756 17.774 10.1053 16.8542 10.1053C15.4771 10.1053 14.5275 9.21538 14.4728 7.57972H20.0162V7.08256C20.0162 4.23881 18.3258 3.26438 16.7349 3.26438C14.6667 3.26438 13.2946 4.89506 13.2946 7.24165C13.2946 9.58825 14.6468 11.1593 16.8542 11.1593ZM14.4728 6.56552C14.5524 5.37731 15.3926 4.31836 16.7349 4.31836C18.0076 4.31836 18.823 5.2729 18.823 6.56552H14.4728Z" fill="#6D6E76"/>
<path d="M27.9856 11.1792C29.318 11.1792 30.014 10.4632 30.2527 9.96609H30.3123V11.0002H31.4856V5.96893C31.4856 3.54279 29.6362 3.26438 28.6618 3.26438C27.5083 3.26438 26.1958 3.66211 25.5993 5.05415L26.7129 5.45188C26.9714 4.89506 27.5829 4.29847 28.7015 4.29847C29.7804 4.29847 30.3123 4.87021 30.3123 5.84961V5.88938C30.3123 6.45614 29.7356 6.40643 28.3436 6.5854C26.9267 6.76935 25.3805 7.08256 25.3805 8.83256C25.3805 10.324 26.5339 11.1792 27.9856 11.1792ZM28.1646 10.1252C27.2299 10.1252 26.5538 9.70756 26.5538 8.89222C26.5538 7.99734 27.3691 7.71893 28.2839 7.59961C28.7811 7.53995 30.1135 7.40075 30.3123 7.16211V8.23597C30.3123 9.19052 29.5566 10.1252 28.1646 10.1252Z" fill="#6D6E76"/>
<path d="M33.6271 11.0002H34.8004V6.16779C34.8004 5.1337 35.6158 4.37802 36.7294 4.37802C37.0426 4.37802 37.3658 4.43768 37.4453 4.45756V3.26438C37.3111 3.25444 37.0028 3.2445 36.8288 3.2445C35.9141 3.2445 35.1186 3.76154 34.8402 4.51722H34.7607V3.36381H33.6271V11.0002Z" fill="#6D6E76"/>
<path d="M41.8054 11.1593C43.3565 11.1593 44.4901 10.3837 44.848 9.23029L43.7145 8.91211C43.4162 9.70756 42.7251 10.1053 41.8054 10.1053C40.4283 10.1053 39.4787 9.21538 39.424 7.57972H44.9673V7.08256C44.9673 4.23881 43.277 3.26438 41.6861 3.26438C39.6179 3.26438 38.2457 4.89506 38.2457 7.24165C38.2457 9.58825 39.598 11.1593 41.8054 11.1593ZM39.424 6.56552C39.5036 5.37731 40.3438 4.31836 41.6861 4.31836C42.9588 4.31836 43.7742 5.2729 43.7742 6.56552H39.424Z" fill="#6D6E76"/>
</g>
<path d="M11.7656 31.1875V34.1172H5.60156V40H2.34375V24.2969H13.0547V27.2266H5.60156V31.1875H11.7656Z" fill="#6D6E76"/>
<path d="M21.8906 27.8594C23.0469 27.8594 24.0391 28.1094 24.8672 28.6094C25.7109 29.1094 26.3516 29.8047 26.7891 30.6953C27.2422 31.5703 27.4688 32.5859 27.4688 33.7422V35.0078H18.8906C19.0469 35.8047 19.4375 36.4453 20.0625 36.9297C20.6875 37.4141 21.4531 37.6562 22.3594 37.6562C23.2188 37.6562 24 37.4844 24.7031 37.1406C25.4062 36.7969 25.9688 36.4453 26.3906 36.0859L26.3672 38.8516C25.9922 39.1797 25.4297 39.5156 24.6797 39.8594C23.9453 40.1875 23.1328 40.3516 22.2422 40.3516C21.0703 40.3516 20 40.0859 19.0312 39.5547C18.0781 39.0234 17.3125 38.2969 16.7344 37.375C16.1719 36.4531 15.8906 35.3984 15.8906 34.2109C15.8906 33.0547 16.1484 32 16.6641 31.0469C17.1797 30.0938 17.8906 29.3281 18.7969 28.75C19.7031 28.1562 20.7344 27.8594 21.8906 27.8594ZM21.8203 30.4609C21.0859 30.4609 20.4688 30.6875 19.9688 31.1406C19.4688 31.5938 19.125 32.2031 18.9375 32.9688H24.6094C24.5469 32.125 24.2344 31.5 23.6719 31.0938C23.1094 30.6719 22.4922 30.4609 21.8203 30.4609Z" fill="#6D6E76"/>
<path d="M34.875 27.8594C35.5156 27.8594 36.1641 28.0078 36.8203 28.3047C37.4766 28.6016 38.0234 29 38.4609 29.5V28.1641H41.4375V40H38.4609V38.0078C38.1172 38.6484 37.6172 39.2031 36.9609 39.6719C36.3047 40.125 35.5391 40.3516 34.6641 40.3516C33.7109 40.3516 32.8281 40.1094 32.0156 39.625C31.2188 39.1406 30.5781 38.4375 30.0938 37.5156C29.6094 36.5938 29.3672 35.4766 29.3672 34.1641C29.3672 32.8516 29.6094 31.7266 30.0938 30.7891C30.5938 29.8516 31.2578 29.1328 32.0859 28.6328C32.9297 28.1172 33.8594 27.8594 34.875 27.8594ZM35.4844 30.7656C34.8594 30.7656 34.3203 30.9297 33.8672 31.2578C33.4297 31.5703 33.0859 31.9844 32.8359 32.5C32.5859 33.0156 32.4609 33.5703 32.4609 34.1641C32.4609 35.0547 32.7266 35.8125 33.2578 36.4375C33.8047 37.0625 34.5234 37.375 35.4141 37.375C35.9453 37.375 36.4375 37.2344 36.8906 36.9531C37.3594 36.6719 37.7344 36.2812 38.0156 35.7812C38.3125 35.2656 38.4609 34.6484 38.4609 33.9297V32.2422C38.0391 31.7891 37.5781 31.4297 37.0781 31.1641C36.5938 30.8984 36.0625 30.7656 35.4844 30.7656Z" fill="#6D6E76"/>
<path d="M49.3828 24.7188V28.1641H52.6641V30.6484H49.3828V35.7578C49.3828 36.2891 49.5 36.7109 49.7344 37.0234C49.9844 37.3203 50.3516 37.4688 50.8359 37.4688C51.2578 37.4688 51.6172 37.4219 51.9141 37.3281C52.2266 37.2344 52.5156 37.1016 52.7812 36.9297V39.2969C52.4844 39.5938 52.1094 39.8438 51.6562 40.0469C51.2188 40.25 50.6641 40.3516 49.9922 40.3516C48.9297 40.3516 48.0625 40.0156 47.3906 39.3438C46.7344 38.6562 46.4062 37.7188 46.4062 36.5312V30.6484H44.2734V29.125C45.0234 28.8594 45.7109 28.3594 46.3359 27.625C46.9766 26.8906 47.4844 25.9219 47.8594 24.7188H49.3828Z" fill="#6D6E76"/>
<path d="M66.2812 28.1641V35.2188C66.2812 36.2656 66.0469 37.1719 65.5781 37.9375C65.1094 38.6875 64.4688 39.2656 63.6562 39.6719C62.8594 40.0781 61.9531 40.2812 60.9375 40.2812C59.9062 40.2812 58.9844 40.0781 58.1719 39.6719C57.375 39.2656 56.7422 38.6875 56.2734 37.9375C55.8203 37.1719 55.5938 36.2656 55.5938 35.2188V28.1641H58.5938L58.6172 34.6797C58.6172 35.6016 58.8281 36.2891 59.25 36.7422C59.6719 37.1953 60.2344 37.4219 60.9375 37.4219C61.625 37.4219 62.1797 37.1953 62.6016 36.7422C63.0391 36.2891 63.2578 35.6016 63.2578 34.6797V28.1641H66.2812Z" fill="#6D6E76"/>
<path d="M77.1328 31.4922C76.6328 31.2109 76.1094 31.0703 75.5625 31.0703C74.875 31.0703 74.3047 31.2969 73.8516 31.75C73.3984 32.1875 73 32.7344 72.6562 33.3906V40H69.6797V28.1641H72.6562V30.3906C73.0625 29.6875 73.5391 29.1016 74.0859 28.6328C74.6484 28.1641 75.2812 27.9297 75.9844 27.9297C76.4062 27.9297 76.7891 28 77.1328 28.1406V31.4922Z" fill="#6D6E76"/>
<path d="M84.6094 27.8594C85.7656 27.8594 86.7578 28.1094 87.5859 28.6094C88.4297 29.1094 89.0703 29.8047 89.5078 30.6953C89.9609 31.5703 90.1875 32.5859 90.1875 33.7422V35.0078H81.6094C81.7656 35.8047 82.1562 36.4453 82.7812 36.9297C83.4062 37.4141 84.1719 37.6562 85.0781 37.6562C85.9375 37.6562 86.7188 37.4844 87.4219 37.1406C88.125 36.7969 88.6875 36.4453 89.1094 36.0859L89.0859 38.8516C88.7109 39.1797 88.1484 39.5156 87.3984 39.8594C86.6641 40.1875 85.8516 40.3516 84.9609 40.3516C83.7891 40.3516 82.7188 40.0859 81.75 39.5547C80.7969 39.0234 80.0312 38.2969 79.4531 37.375C78.8906 36.4531 78.6094 35.3984 78.6094 34.2109C78.6094 33.0547 78.8672 32 79.3828 31.0469C79.8984 30.0938 80.6094 29.3281 81.5156 28.75C82.4219 28.1562 83.4531 27.8594 84.6094 27.8594ZM84.5391 30.4609C83.8047 30.4609 83.1875 30.6875 82.6875 31.1406C82.1875 31.5938 81.8438 32.2031 81.6562 32.9688H87.3281C87.2656 32.125 86.9531 31.5 86.3906 31.0938C85.8281 30.6719 85.2109 30.4609 84.5391 30.4609Z" fill="#6D6E76"/>
<path d="M104.156 23.125V40H101.18V38.0078C100.836 38.6484 100.336 39.2031 99.6797 39.6719C99.0234 40.125 98.2578 40.3516 97.3828 40.3516C96.4297 40.3516 95.5469 40.1094 94.7344 39.625C93.9375 39.1406 93.2969 38.4375 92.8125 37.5156C92.3281 36.5938 92.0859 35.4766 92.0859 34.1641C92.0859 32.8516 92.3281 31.7266 92.8125 30.7891C93.3125 29.8516 93.9766 29.1328 94.8047 28.6328C95.6484 28.1172 96.5781 27.8594 97.5938 27.8594C98.2344 27.8594 98.8828 28.0078 99.5391 28.3047C100.195 28.6016 100.742 29 101.18 29.5V23.125H104.156ZM98.2031 30.7891C97.5781 30.7891 97.0391 30.9531 96.5859 31.2812C96.1484 31.5938 95.8047 32.0078 95.5547 32.5234C95.3047 33.0234 95.1797 33.5703 95.1797 34.1641C95.1797 35.0547 95.4453 35.8125 95.9766 36.4375C96.5234 37.0625 97.2422 37.375 98.1328 37.375C98.6641 37.375 99.1562 37.2344 99.6094 36.9531C100.078 36.6719 100.453 36.2812 100.734 35.7812C101.031 35.2656 101.18 34.6484 101.18 33.9297V32.2422C100.758 31.7891 100.297 31.4375 99.7969 31.1875C99.3125 30.9219 98.7812 30.7891 98.2031 30.7891Z" fill="#6D6E76"/>
<path d="M117.328 22C117.891 22 118.375 22.2031 118.781 22.6094C119.188 23 119.391 23.4688 119.391 24.0156C119.391 24.5469 119.188 25.0156 118.781 25.4219C118.375 25.8281 117.891 26.0312 117.328 26.0312C116.766 26.0312 116.281 25.8281 115.875 25.4219C115.484 25.0156 115.289 24.5469 115.289 24.0156C115.289 23.4688 115.484 23 115.875 22.6094C116.281 22.2031 116.766 22 117.328 22ZM119.062 28.1641V40H116.086V30.6953H114.188V28.1641H119.062Z" fill="#6D6E76"/>
<path d="M125.789 28.1641V29.8516C126.148 29.3672 126.633 28.9141 127.242 28.4922C127.867 28.0703 128.578 27.8594 129.375 27.8594C130.578 27.8594 131.586 28.2656 132.398 29.0781C133.211 29.8906 133.617 31.1094 133.617 32.7344V40H130.641L130.617 33.1328C130.617 32.3359 130.422 31.7422 130.031 31.3516C129.656 30.9609 129.133 30.7656 128.461 30.7656C127.93 30.7656 127.43 30.9375 126.961 31.2812C126.508 31.625 126.117 32.0312 125.789 32.5V40H122.812V28.1641H125.789Z" fill="#6D6E76"/>
</svg>
